HIERARCHY
ROOT Hips
{
	OFFSET -3.958830 18.904000 13.208200
	CHANNELS 6 Xposition Yposition Zposition Zrotation Yrotation Xrotation 
	JOINT LHipJoint
	{
		OFFSET 0.000000 0.000000 0.000000
		CHANNELS 3 Zrotation Yrotation Xrotation
		JOINT LeftUpLeg
		{
			OFFSET 1.800000 -1.400000 0.085000
			CHANNELS 3 Zrotation Yrotation Xrotation
			JOINT LeftLeg
			{
				OFFSET 2.215000 -6.000000 0.000000
				CHANNELS 3 Zrotation Yrotation Xrotation
				JOINT LeftFoot
				{
					OFFSET 2.500000 -6.900000 0.000000
					CHANNELS 3 Zrotation Yrotation Xrotation
					JOINT LeftToeBase
					{
						OFFSET 0.200000 -0.500000 1.950000
						CHANNELS 3 Zrotation Yrotation Xrotation
						End Site
						{
							OFFSET 0.000000 0.000000 0.000000
						}
					}
				}
			}
		}
	}
	JOINT RHipJoint
	{
		OFFSET 0.000000 0.000000 0.000000
		CHANNELS 3 Zrotation Yrotation Xrotation
		JOINT RightUpLeg
		{
			OFFSET -1.800000 -1.400000 0.085000
			CHANNELS 3 Zrotation Yrotation Xrotation
			JOINT RightLeg
			{
				OFFSET -2.215000 -6.000000 0.000000
				CHANNELS 3 Zrotation Yrotation Xrotation
				JOINT RightFoot
				{
					OFFSET -2.500000 -6.900000 0.000000
					CHANNELS 3 Zrotation Yrotation Xrotation
					JOINT RightToeBase
					{
						OFFSET -0.200000 -0.500000 1.950000
						CHANNELS 3 Zrotation Yrotation Xrotation
						End Site
						{
							OFFSET 0.000000 0.000000 0.000000
						}
					}
				}
			}
		}
	}
	JOINT LowerBack
	{
		OFFSET 0.000000 0.000000 0.000000
		CHANNELS 3 Zrotation Yrotation Xrotation
		JOINT Spine
		{
			OFFSET -0.087000 1.940000 -0.288900
			CHANNELS 3 Zrotation Yrotation Xrotation
			JOINT Spine1
			{
				OFFSET 0.000000 1.950000 0.060000
				CHANNELS 3 Zrotation Yrotation Xrotation
				JOINT Neck
				{
					OFFSET 0.000000 0.000000 0.000000
					CHANNELS 3 Zrotation Yrotation Xrotation
					JOINT Neck1
					{
						OFFSET 0.000000 1.600000 0.340000
						CHANNELS 3 Zrotation Yrotation Xrotation
						JOINT Head
						{
							OFFSET 0.000000 1.667000 -0.240000
							CHANNELS 3 Zrotation Yrotation Xrotation
							End Site
							{
								OFFSET 0.000000 0.000000 0.000000
							}
						}
					}
				}
				JOINT LeftShoulder
				{
					OFFSET 0.000000 0.000000 0.000000
					CHANNELS 3 Zrotation Yrotation Xrotation
					JOINT LeftArm
					{
						OFFSET 2.700000 1.550000 -0.730000
						CHANNELS 3 Zrotation Yrotation Xrotation
						JOINT LeftForeArm
						{
							OFFSET 5.450000 0.000000 0.000000
							CHANNELS 3 Zrotation Yrotation Xrotation
							JOINT LeftHand
							{
								OFFSET 3.450000 0.000000 0.000000
								CHANNELS 3 Zrotation Yrotation Xrotation
								JOINT LeftHandIndex1
								{
									OFFSET 0.750000 0.000000 0.000000
									CHANNELS 3 Zrotation Yrotation Xrotation
									End Site
									{
										OFFSET 0.000000 0.000000 0.000000
									}
								}
							}
						}
					}
				}
				JOINT RightShoulder
				{
					OFFSET 0.000000 0.000000 0.000000
					CHANNELS 3 Zrotation Yrotation Xrotation
					JOINT RightArm
					{
						OFFSET -2.700000 1.550000 -0.730000
						CHANNELS 3 Zrotation Yrotation Xrotation
						JOINT RightForeArm
						{
							OFFSET -5.450000 0.000000 0.000000
							CHANNELS 3 Zrotation Yrotation Xrotation
							JOINT RightHand
							{
								OFFSET -3.450000 0.000000 0.000000
								CHANNELS 3 Zrotation Yrotation Xrotation
								JOINT RightHandIndex1
								{
									OFFSET -0.750000 0.000000 0.000000
									CHANNELS 3 Zrotation Yrotation Xrotation
									End Site
									{
										OFFSET 0.000000 0.000000 0.000000
									}
								}
							}
						}
					}
				}
			}
		}
	}
}
MOTION
Frames: 6
Frame Time: 0.016667
-1.330040 17.569790 -4.048170 -5.427365 -7.524226 5.182401 -15.160044 10.671736 5.048930 21.528259 -3.789249 -31.399519 -32.868800 16.451902 21.995400 0.788570 9.361220 1.634118 0.184330 -0.324850 0.293120 18.648492 -9.882526 2.317572 -9.171250 4.487973 -25.906268 12.404464 -8.703955 25.556689 0.098406 -5.007013 2.819749 -0.071800 0.679600 0.342490 -4.255397 0.143274 -7.704415 15.753670 1.361749 3.439051 0.091561 0.996107 3.124362 1.752294 -0.897018 -7.228512 -0.840804 1.455884 19.407688 -9.239780 6.780810 11.494460 -23.743016 -6.242098 2.407080 -59.616330 -4.664140 -4.459459 -12.784076 -16.810200 -0.360810 -4.369704 3.340042 -0.203420 0.748770 -0.654540 0.202560 20.047170 7.383577 4.087725 51.579217 0.769650 -4.461451 4.475123 7.997648 -1.369243 2.347395 -1.949033 -0.189080 -0.162620 -0.108590 -0.175440 
-1.325600 17.519820 -4.062050 -5.635716 -7.882081 5.223325 -15.164494 10.429476 5.245306 22.787323 -3.654477 -32.296701 -35.016778 17.016048 21.582902 0.890958 9.594899 1.559021 0.239630 -0.244140 0.328750 18.689281 -9.699390 2.374364 -10.466360 4.802520 -26.905728 14.174450 -9.765446 27.138148 -0.007863 -5.402543 2.672823 -0.043760 0.637520 0.331750 -4.340352 0.176569 -7.861104 16.923105 1.128185 3.870237 -0.167435 0.915372 3.292396 1.624073 -1.357498 -7.243308 -1.645628 1.421965 19.796727 -9.387700 6.680370 10.561090 -24.525035 -6.641995 2.480386 -58.577220 -4.403009 -4.851292 -14.017838 -17.857188 -0.149804 -4.307174 3.348379 -0.191870 0.715030 -0.609790 0.222580 20.987292 8.038577 4.242460 50.090019 0.751573 -4.418150 3.783479 8.292102 -1.383123 2.351608 -1.945488 -0.160950 -0.153880 -0.154670 -0.166520 
-1.315580 17.418820 -4.094600 -5.850048 -8.589244 5.076727 -15.179016 10.009910 5.587062 25.004837 -3.220038 -33.475177 -39.519832 18.029740 20.350377 1.003958 10.038599 1.415196 0.296370 -0.177410 0.365470 18.757095 -9.319172 2.532094 -13.122211 5.421193 -28.912058 17.319116 -11.867884 30.082580 -0.198021 -6.176620 2.393600 -0.001240 0.578990 0.260630 -4.478585 0.152713 -8.188690 18.921136 0.684728 5.016198 -0.510365 0.927938 3.496021 1.287377 -2.538042 -7.438729 -3.794385 1.678390 21.010272 -8.747950 5.861630 8.813020 -25.652253 -7.410036 2.678507 -57.138662 -3.630722 -5.803890 -16.736086 -20.385102 0.290919 -4.182210 3.306159 -0.104960 0.630830 -0.564960 0.232410 22.614811 9.563237 4.730062 46.979263 0.775920 -4.275798 3.042183 8.543522 -1.318185 2.335013 -1.877915 -0.189690 -0.084840 -0.182250 -0.187650 
-1.303110 17.290990 -4.131200 -6.143045 -9.111980 4.670679 -15.223306 9.638812 5.965833 27.433081 -2.666142 -34.978521 -43.950959 19.253677 19.719906 1.144034 10.506430 1.286374 0.387770 -0.096950 0.432810 18.796451 -8.872764 2.743653 -15.983790 5.953824 -30.841748 20.583473 -14.216797 32.750448 -0.457072 -6.973361 2.127812 0.022780 0.513840 0.211130 -4.528329 -0.052152 -8.613616 20.664330 -0.039219 7.113735 -0.070183 0.895926 3.135500 0.928101 -3.924455 -7.951245 -6.445266 1.926626 22.699360 -7.830280 4.691730 6.312280 -26.313610 -8.100533 2.981410 -56.391802 -2.573290 -7.008348 -20.003797 -23.500809 0.899784 -4.018966 3.248982 0.032640 0.517080 -0.477720 0.268310 23.875899 11.346617 5.455369 43.058337 0.794061 -4.140810 2.873547 9.051751 -1.172725 2.316088 -1.786306 -0.202150 -0.003570 -0.233750 -0.202500 
-1.294600 17.152210 -4.165650 -5.822503 -9.432786 3.857504 -15.295066 9.464340 6.244164 28.803185 -2.340379 -36.054562 -47.794313 20.309846 19.364460 1.322043 10.767419 1.199960 0.502640 0.024440 0.514470 18.771214 -8.439004 3.003070 -19.364567 6.094641 -32.238313 24.159148 -16.567228 34.413020 -0.732510 -7.690534 1.883360 0.037190 0.387290 0.185900 -4.416137 -0.513329 -9.059313 21.155066 -0.764507 10.081779 1.056032 0.969899 2.274549 0.666141 -5.334840 -8.734289 -9.324721 2.344131 24.734614 -6.770530 3.790630 3.517110 -26.784304 -8.561736 3.360394 -55.422645 -1.074312 -8.408881 -24.763593 -27.162314 2.066433 -3.818461 3.268927 0.148460 0.371600 -0.348480 0.299930 24.919034 13.177896 6.309151 39.470726 0.578793 -4.128993 1.886928 9.497049 -1.028067 2.342127 -1.723735 -0.149610 0.011800 -0.314260 -0.200740 
-1.281850 17.012240 -4.196360 -5.782432 -9.944566 2.942699 -15.374169 9.359831 6.448527 30.035956 -1.820904 -36.604507 -51.177567 21.314979 18.989187 1.430380 10.986494 1.113671 0.545660 0.073440 0.557910 18.732703 -8.023687 3.274874 -22.184512 6.326361 -33.614873 27.265079 -18.872053 36.160955 -0.968615 -8.358012 1.673623 0.036520 0.284590 0.132430 -4.271181 -1.000366 -9.451443 21.936892 -1.480525 13.105109 2.097148 1.158118 1.522813 0.709078 -6.648191 -9.708823 -12.150548 3.111433 26.857953 -6.165070 3.515330 1.042270 -26.856363 -9.103127 3.752275 -55.080491 0.204525 -9.588558 -29.185801 -30.241469 3.320799 -3.676266 3.240813 0.260150 0.253990 -0.263130 0.289350 25.061773 15.062550 7.246048 36.697554 0.593109 -4.107462 0.546535 9.571868 -0.888546 2.360667 -1.631663 -0.147200 0.043870 -0.339640 -0.223720 
